<?xml version="1.0" standalone="no"?><!DOCTYPE svg PUBLIC "-//W3C//DTD SVG 1.1//EN" "http://www.w3.org/Graphics/SVG/1.1/DTD/svg11.dtd"><svg class="icon" height="512" viewBox="0 0 1024 1024" version="1.1" xmlns="http://www.w3.org/2000/svg"><path d="M512 0A512 512 0 1 1 0 512 512 512 0 0 1 512 0z m-1.185684 215.578947a79.656421 79.656421 0 0 0-79.333053 86.770527l21.234526 236.813473c2.694737 30.396632 28.186947 53.679158 58.745264 53.679158a58.745263 58.745263 0 0 0 58.475789-53.679158l20.48-236.759579A79.925895 79.925895 0 0 0 510.868211 215.578947z m1.185684 431.157895a80.842105 80.842105 0 1 0 0 161.684211 80.842105 80.842105 0 0 0 0-161.684211z" fill="#FF6459" /></svg>